<svg xmlns="http://www.w3.org/2000/svg" xmlns:xlink="http://www.w3.org/1999/xlink" width="40" height="35" viewBox="0 0 40 35">
    <defs>
        <path id="a" d="M33.993 5.54a.638.638 0 0 0-.058-.215.678.678 0 0 0-.157-.202.715.715 0 0 0-.168-.095.679.679 0 0 0-.189-.028c-.081.008-.096.006-.11.01L.45 12.499a.603.603 0 0 0-.445.524.644.644 0 0 0 .296.64l9.415 5.477 1.651 10.106a.86.86 0 0 0 0 .17.741.741 0 0 0 .073.241c.026.052.036.061.045.073.026.037.054.07.086.098a.57.57 0 0 0 .351.139.56.56 0 0 0 .44-.197l6.272-4.612 6.567 4.708a.531.531 0 0 0 .486.069.596.596 0 0 0 .353-.378L33.964 5.84c.02-.075.021-.084.023-.093a.727.727 0 0 0 .006-.207zm-6.558 4.17L13.853 20.724c-.022.018-.04.04-.06.062a.572.572 0 0 0-.054.066c-.01.015-.018.03-.027.046a.668.668 0 0 0-.052.117c-.007.017-.53 1.886-1.57 5.609l-1.233-7.549L27.435 9.71zM12.968 27.825l1.543-5.622 2.402 1.723.688.493-2.335 1.716-2.298 1.69zM29.46 7.162L10.23 18.026 2.225 13.37l27.236-6.208zm-4.237 21.231l-8.72-6.25-1.321-.948 17.07-13.842-7.029 21.04z"/>
    </defs>
    <g fill="none" fill-rule="evenodd">
        <mask id="b" fill="#fff">
            <use xlink:href="#a"/>
        </mask>
        <use fill="#000" fill-rule="nonzero" xlink:href="#a"/>
        <g fill="#162C45" mask="url(#b)">
            <path d="M-34-35H66V65H-34z"/>
        </g>
    </g>
</svg>
