<svg xmlns="http://www.w3.org/2000/svg" xmlns:xlink="http://www.w3.org/1999/xlink" width="20" height="20" viewBox="0 0 40 35">
    <defs>
        <path id="a" d="M25.621 10.321a.25.25 0 0 0-.262-.238l-2.109.114-.1-.399a8.56 8.56 0 0 0-1.445-3.036l-.247-.33.276-.305 1.138-1.257a.248.248 0 0 0-.016-.354l-1.52-1.365a.248.248 0 0 0-.353.018l-1.417 1.565-.352-.21a8.535 8.535 0 0 0-3.168-1.125l-.406-.059-.022-.41-.092-1.699a.249.249 0 0 0-.263-.23l-2.044.105a.25.25 0 0 0-.237.263l.113 2.109-.398.1A8.554 8.554 0 0 0 9.66 5.025l-.33.247-.306-.278-1.249-1.137a.248.248 0 0 0-.354.017l-1.37 1.519a.249.249 0 0 0 .017.355l1.565 1.416-.21.352a8.542 8.542 0 0 0-1.125 3.17l-.059.407-.411.02-1.697.085a.25.25 0 0 0-.238.262l.113 2.046a.25.25 0 0 0 .263.238l2.108-.114.101.399a8.56 8.56 0 0 0 1.444 3.036l.247.33-.276.305-1.138 1.258a.248.248 0 0 0 .016.353l1.52 1.365a.248.248 0 0 0 .354-.018l1.416-1.565.352.21c.98.586 2.05.964 3.168 1.126l.406.058.022.41.092 1.7a.25.25 0 0 0 .264.237l2.043-.106a.25.25 0 0 0 .238-.263l-.114-2.109.399-.1a8.554 8.554 0 0 0 3.035-1.445l.33-.247.305.276 1.257 1.138a.248.248 0 0 0 .353-.016l1.365-1.52a.248.248 0 0 0-.017-.353l-1.574-1.417.211-.353c.586-.98.963-2.05 1.125-3.17l.059-.405.41-.022 1.698-.092a.25.25 0 0 0 .238-.264l-.106-2.044zM24.01 9.155l1.297-.07a1.25 1.25 0 0 1 1.314 1.185l.106 2.044a1.25 1.25 0 0 1-1.184 1.314l-1.298.07a9.529 9.529 0 0 1-.984 2.774l.966.87c.517.458.557 1.246.097 1.765l-1.365 1.52a1.248 1.248 0 0 1-1.766.095l-.962-.871c-.817.557-1.71.98-2.655 1.263l.07 1.298a1.25 1.25 0 0 1-1.185 1.314l-2.043.106a1.25 1.25 0 0 1-1.314-1.184l-.07-1.298a9.522 9.522 0 0 1-2.774-.986l-.868.96a1.248 1.248 0 0 1-1.765.097l-1.52-1.365a1.248 1.248 0 0 1-.095-1.766l.871-.963A9.55 9.55 0 0 1 5.62 14.67l-1.297.07a1.25 1.25 0 0 1-1.314-1.183l-.112-2.046a1.25 1.25 0 0 1 1.186-1.314l1.295-.064c.183-.969.513-1.9.985-2.774l-.96-.869a1.248 1.248 0 0 1-.096-1.766l1.37-1.518a1.248 1.248 0 0 1 1.768-.095l.956.87a9.545 9.545 0 0 1 2.653-1.263l-.07-1.298A1.25 1.25 0 0 1 13.168.107l2.043-.105a1.249 1.249 0 0 1 1.314 1.177l.07 1.298c.969.182 1.9.512 2.774.985l.869-.96a1.248 1.248 0 0 1 1.765-.097l1.519 1.365c.516.458.556 1.246.095 1.767l-.87.962a9.55 9.55 0 0 1 1.262 2.656zm-5.773 5.844a4.61 4.61 0 0 1-6.512.34 4.62 4.62 0 0 1-.338-6.513A4.61 4.61 0 1 1 18.236 15zm-.743-.67a3.612 3.612 0 0 0-.266-5.099 3.61 3.61 0 0 0-5.098.265 3.61 3.61 0 1 0 5.364 4.835zm10.988 15.602l-1.343-.537.083-.409a4.857 4.857 0 0 0-.006-1.98l-.086-.409.387-.157.958-.39-.47-1.095-1.346.547-.228-.33a5.223 5.223 0 0 0-1.45-1.409l-.351-.227.162-.386.39-.927-1.14-.459-.553 1.314-.399-.077a5.274 5.274 0 0 0-2.045.006l-.398.08-.16-.373-.403-.943-1.14.466.56 1.31-.35.229a5.221 5.221 0 0 0-1.445 1.414l-.226.331-.372-.149-.976-.39-.464 1.096 1.343.537-.083.408a4.857 4.857 0 0 0 .007 1.98l.086.41-.387.157-.959.39.471 1.095 1.345-.547.228.33a5.223 5.223 0 0 0 1.451 1.408l.35.228-.161.385-.39.927 1.14.46.553-1.314.398.076a5.274 5.274 0 0 0 2.045-.006l.399-.08.16.374.403.942 1.14-.466-.561-1.31.353-.23a5.126 5.126 0 0 0 1.441-1.412l.226-.332.373.15.976.39.464-1.096zm.407-.914c.5.2.74.768.531 1.264l-.491 1.16a.979.979 0 0 1-1.267.52l-.63-.252c-.33.42-.713.797-1.139 1.118l.255.595a.958.958 0 0 1-.528 1.262l-1.193.488a.978.978 0 0 1-1.266-.518l-.26-.605a6.264 6.264 0 0 1-1.624.005l-.255.605a.979.979 0 0 1-1.267.52l-1.19-.48a.959.959 0 0 1-.531-1.262l.25-.594a6.22 6.22 0 0 1-1.144-1.113l-.634.258a.978.978 0 0 1-1.266-.516l-.5-1.164a.958.958 0 0 1 .529-1.262l.618-.252a5.844 5.844 0 0 1-.005-1.556l-.618-.247a.959.959 0 0 1-.53-1.264l.491-1.16a.979.979 0 0 1 1.266-.52l.632.252c.33-.42.712-.794 1.138-1.117l-.256-.596a.958.958 0 0 1 .528-1.263l1.194-.487a.978.978 0 0 1 1.266.517l.259.605a6.264 6.264 0 0 1 1.625-.004l.254-.606a.979.979 0 0 1 1.268-.519l1.19.48c.5.2.74.767.531 1.262l-.25.594c.43.322.813.696 1.143 1.112l.634-.258a.978.978 0 0 1 1.266.517l.5 1.164a.958.958 0 0 1-.529 1.262l-.617.251c.07.515.072 1.037.004 1.557l.618.247zm-7.978 1.79c-1.582-.63-2.338-2.398-1.687-3.952.647-1.545 2.447-2.277 4.026-1.647 1.578.632 2.337 2.4 1.687 3.952-.648 1.545-2.447 2.276-4.026 1.647zm1.968-4.67c-1.077-.43-2.298.067-2.733 1.104-.434 1.036.07 2.213 1.136 2.637 1.076.43 2.298-.067 2.733-1.105.432-1.032-.074-2.211-1.136-2.637zm12.125-7.318l-.08-.402a3.922 3.922 0 0 0-.584-1.419l-.23-.341.78-.78-.514-.513-.78.779-.34-.23a3.803 3.803 0 0 0-1.414-.582l-.407-.077v-1.108h-.726v1.103l-.402.08c-.512.103-.995.3-1.42.585l-.34.229-.78-.78-.513.514.779.78-.23.341c-.29.434-.49.917-.583 1.413l-.076.408h-1.108v.726h1.103l.08.402c.103.512.3.995.585 1.419l.229.341-.78.78.514.513.78-.78.34.23c.434.291.918.49 1.414.583l.408.077v1.107h.726v-1.102l.402-.08c.512-.103.995-.3 1.418-.585l.342-.23.78.78.513-.514-.78-.779.23-.341c.29-.434.49-.917.583-1.413l.076-.408h1.108v-.726h-1.103zm1.238-1c.48 0 .865.385.865.865v.996c0 .48-.385.865-.865.865h-.432c-.1.354-.242.698-.423 1.024l.312.313a.873.873 0 0 1-.008 1.217l-.71.71a.873.873 0 0 1-1.218-.008l-.305-.305a4.921 4.921 0 0 1-1.023.421v.435c0 .48-.386.865-.865.865h-.996a.862.862 0 0 1-.865-.865v-.432a4.811 4.811 0 0 1-1.024-.423l-.313.312a.873.873 0 0 1-1.218-.008l-.71-.71a.873.873 0 0 1 .009-1.218l.304-.305a4.921 4.921 0 0 1-.42-1.023H25.9a.862.862 0 0 1-.865-.865v-.996c0-.48.386-.865.865-.865h.432c.1-.354.243-.698.424-1.024l-.313-.313a.873.873 0 0 1 .009-1.218l.71-.71a.873.873 0 0 1 1.217.009l.305.304a4.921 4.921 0 0 1 1.024-.42v-.436c0-.48.385-.865.865-.865h.996c.48 0 .865.386.865.865v.432c.354.1.698.243 1.024.424l.313-.313a.873.873 0 0 1 1.217.009l.71.71a.873.873 0 0 1-.008 1.218l-.305.304c.178.323.32.667.421 1.024h.435zm-3.407 3.127a2.503 2.503 0 0 1-3.534 0 2.503 2.503 0 0 1 0-3.535 2.503 2.503 0 0 1 3.534 0c.974.974.974 2.56 0 3.535zm-.707-.708a1.503 1.503 0 0 0 0-2.12 1.503 1.503 0 0 0-2.12 0 1.503 1.503 0 0 0 0 2.12 1.503 1.503 0 0 0 2.12 0z"/>
    </defs>
    <g fill="A4A4A4" fill-rule="evenodd">
        <mask id="b" fill="#A4A4A4">
            <use xlink:href="#a"/>
        </mask>
        <use fill="#A4A4A4" fill-rule="nonzero" transform="matrix(-1 0 0 1 40 0)" xlink:href="#a"/>
        <g fill="#A4A4A4" mask="url(#b)">
            <path d="M-24-23H76V77H-24z"/>
        </g>
    </g>
</svg>
