<svg xmlns="http://www.w3.org/2000/svg" xmlns:xlink="http://www.w3.org/1999/xlink" width="40" height="35" viewBox="0 0 40 35">
    <defs>
        <path id="a" d="M33.516 3.96h-8.1c-.064-.72-.286-1.936-1.046-2.717C23.89.75 23.28.5 22.557.5h-5.768c-.722 0-1.332.25-1.813.743-.76.78-.983 1.997-1.046 2.718H6.984a.577.577 0 1 0 0 1.153h26.532a.577.577 0 1 0 0-1.153zM15.804 2.047c.258-.264.58-.392.985-.392h5.768c.404 0 .726.128.985.392.464.475.65 1.31.715 1.915h-9.168c.065-.605.251-1.44.715-1.915zM9.265 31.66L8.21 6.268H32.29l-1.057 25.403c-.02.982-.64 2.86-2.83 2.86H12.096c-2.19 0-2.81-1.878-2.83-2.872zM31.09 7.422H9.41l1.007 24.201c.007.187.101 1.755 1.678 1.755h16.308c1.594 0 1.674-1.565 1.677-1.743l1.008-24.213zm-17.76 24.225a.577.577 0 1 1 0-1.153h13.843a.577.577 0 1 1 0 1.153H13.328zm0-2.884a.577.577 0 1 1 0-1.153h13.843a.577.577 0 1 1 0 1.153H13.328zm0-2.884a.577.577 0 1 1 0-1.153h13.843a.577.577 0 1 1 0 1.153H13.328z"/>
    </defs>
    <g fill="none" fill-rule="evenodd">
        <mask id="b" fill="#fff">
            <use xlink:href="#a"/>
        </mask>
        <use fill="" fill-rule="nonzero" xlink:href="#a"/>
        <g fill="#A4A4A4" mask="url(#b)">
            <path d="M-24-31H76V69H-24z"/>
        </g>
    </g>
</svg>
